<?xml version="1.0" standalone="no"?>
<!DOCTYPE svg PUBLIC "-//W3C//DTD SVG 20010904//EN"
 "http://www.w3.org/TR/2001/REC-SVG-20010904/DTD/svg10.dtd">
<svg version="1.0" xmlns="http://www.w3.org/2000/svg"
 width="160.000000pt" height="160.000000pt" viewBox="0 0 160.000000 160.000000"
 preserveAspectRatio="xMidYMid meet">
<metadata>
Created by potrace 1.11, written by Peter Selinger 2001-2013
</metadata>
<g transform="translate(0.000000,160.000000) scale(0.100000,-0.100000)"
fill="#000000" stroke="none">
<path d="M624 1580 c-437 -98 -705 -536 -599 -978 49 -206 201 -399 396 -506
207 -113 489 -124 701 -28 216 98 370 272 443 502 37 115 43 285 14 408 -51
221 -194 411 -390 521 -164 91 -379 122 -565 81z m337 -94 c430 -99 665 -582
479 -981 -31 -66 -116 -186 -153 -216 -12 -9 -33 -27 -47 -39 -43 -38 -152
-98 -218 -119 -407 -136 -842 125 -916 550 -42 240 41 476 225 643 171 154
405 214 630 162z"/>
<path d="M399 978 c-45 -37 -18 -84 50 -86 155 -6 297 -152 300 -309 1 -37 23
-63 54 -63 46 0 55 56 26 165 -24 91 -116 207 -198 249 -88 46 -203 68 -232
44z"/>
<path d="M1068 973 c-62 -16 -143 -61 -181 -101 l-27 -28 22 -42 c26 -47 33
-50 48 -21 20 37 125 97 183 104 102 12 137 45 96 86 -22 22 -59 23 -141 2z"/>
</g>
</svg>
