<svg version="1.0" viewBox="0 0 160 160"><defs/><path d="M62.4 2C18.7 11.8-8.1 55.6 2.5 99.8c4.9 20.6 20.1 39.9 39.6 50.6 20.7 11.3 48.9 12.4 70.1 2.8 21.6-9.8 37-27.2 44.3-50.2 3.7-11.5 4.3-28.5 1.4-40.8-5.1-22.1-19.4-41.1-39-52.1C102.5 1 81-2.1 62.4 2zm33.7 9.4c43 9.9 66.5 58.2 47.9 98.1-3.1 6.6-11.6 18.6-15.3 21.6-1.2.9-3.3 2.7-4.7 3.9-4.3 3.8-15.2 9.8-21.8 11.9-40.7 13.6-84.2-12.5-91.6-55-4.2-24 4.1-47.6 22.5-64.3 17.1-15.4 40.5-21.4 63-16.2z"/><path d="M39.9 62.2c-4.5 3.7-1.8 8.4 5 8.6 15.5.6 29.7 15.2 30 30.9.1 3.7 2.3 6.3 5.4 6.3 4.6 0 5.5-5.6 2.6-16.5-2.4-9.1-11.6-20.7-19.8-24.9-8.8-4.6-20.3-6.8-23.2-4.4zm66.9.5c-6.2 1.6-14.3 6.1-18.1 10.1L86 75.6l2.2 4.2c2.6 4.7 3.3 5 4.8 2.1 2-3.7 12.5-9.7 18.3-10.4 10.2-1.2 13.7-4.5 9.6-8.6-2.2-2.2-5.9-2.3-14.1-.2z"/></svg>